<?xml version="1.0" encoding="UTF-8"?>
<svg width="100px" height="100px" viewBox="0 0 100 100" version="1.1" xmlns="http://www.w3.org/2000/svg" xmlns:xlink="http://www.w3.org/1999/xlink">
    <!-- Generator: Sketch 49 (51002) - http://www.bohemiancoding.com/sketch -->
    <title>LOGOLOGO</title>
    <desc>Created with Sketch.</desc>
    <defs>
        <linearGradient x1="50%" y1="0%" x2="50%" y2="100%" id="linearGradient-1">
            <stop stop-color="#00ACA0" offset="0%"></stop>
            <stop stop-color="#00ACA0" offset="100%"></stop>
        </linearGradient>
    </defs>
    <g id="Page-1" stroke="none" stroke-width="1" fill="none" fill-rule="evenodd">
        <g id="iPhone-X" transform="translate(-138.000000, -356.000000)" fill="url(#linearGradient-1)" fill-rule="nonzero">
            <g id="LOGOLOGO" transform="translate(138.000000, 356.000000)">
                <path d="M99.616185,49.7701149 C99.616185,77.2662161 77.3231214,99.5402299 49.8109827,99.5402299 C22.3104046,99.5402299 0,77.2662161 0,49.7701149 C0,22.2815226 22.3104046,0 49.8109827,0 C77.3231214,0 99.616185,22.2815226 99.616185,49.7701149 Z M58.2947977,36.2138278 L78.2566474,56.2635014 L76.0705202,58.3145613 L56.2514451,38.2614221 L52.9872832,41.3983712 L72.8121387,61.4503552 L43.1947977,90.4372437 C44.4040462,92.0048518 47.5514451,92.2566857 47.5514451,92.2566857 L80.9109827,59.1555479 L83.0890173,61.2089182 L51.7716763,92.4940796 C56.9693642,92.0048518 60.1121387,89.4784266 60.1121387,89.4784266 L86.5861272,63.5152775 C88.2803468,60.9669035 86.7040462,58.3145613 86.7040462,58.3145613 L61.4520231,33.0739906 L58.2947977,36.2138278 Z M35.483237,41.0656732 L55.5508671,21.1344077 L57.6052023,23.3113845 L37.5450867,43.1098019 L40.6884393,46.3697799 L60.7624277,26.5655866 L89.7786127,56.1728181 C91.3300578,54.9540807 91.5647399,51.8177092 91.5647399,51.8177092 L58.4618497,18.4785999 L60.5092486,16.2964247 L91.8063584,47.5896725 C91.3300578,42.4010859 88.782659,39.2560504 88.782659,39.2560504 L62.8063584,12.8030959 C60.2693642,11.1124588 57.6052023,12.685843 57.6052023,12.685843 L32.3491329,37.9287241 L35.483237,41.0656732 Z M40.5057803,62.3196442 L20.5526012,42.2711257 L22.7317919,40.2229538 L42.5491329,60.2639635 L45.817341,57.136256 L26.0052023,37.0692543 L55.6046243,8.08929706 C54.4040462,6.5188009 51.2612717,6.27505343 51.2612717,6.27505343 L17.9034682,39.3623289 L15.7150289,37.319933 L47.0283237,6.04170277 C41.8323699,6.5188009 38.6930636,9.06197655 38.6930636,9.06197655 L12.2260116,35.0251256 C10.5184971,37.5613701 12.0971098,40.2229538 12.0971098,40.2229538 L37.3531792,65.4565933 L40.5057803,62.3196442 Z M63.6560694,58.1222203 L43.5947977,78.0494426 L41.5352601,75.8672674 L61.5861272,56.0567204 L58.4618497,52.8088719 L38.3878613,72.6067117 L9.38901734,43.0191186 C7.81618497,44.2297695 7.56820809,47.3742275 7.56820809,47.3742275 L40.6884393,80.7104488 L38.6398844,82.8747184 L7.33583815,51.5947554 C7.81618497,56.7856524 10.3572254,59.9358863 10.3572254,59.9358863 L36.3398844,86.3830647 C38.8734104,88.0812107 41.5352601,86.4864553 41.5352601,86.4864553 L66.7913295,61.2533934 L63.6560694,58.1222203 Z" id="Combined-Shape"></path>
            </g>
        </g>
    </g>
</svg>